<?xml version="1.0" standalone="no"?><svg xmlns="http://www.w3.org/2000/svg" viewBox="0 0 1440 320"><path fill="#037e3f" fill-opacity="1" d="M0,160L17.1,149.3C34.3,139,69,117,103,117.3C137.1,117,171,139,206,165.3C240,192,274,224,309,218.7C342.9,213,377,171,411,165.3C445.7,160,480,192,514,202.7C548.6,213,583,203,617,165.3C651.4,128,686,64,720,64C754.3,64,789,128,823,165.3C857.1,203,891,213,926,197.3C960,181,994,139,1029,133.3C1062.9,128,1097,160,1131,154.7C1165.7,149,1200,107,1234,112C1268.6,117,1303,171,1337,160C1371.4,149,1406,75,1423,37.3L1440,0L1440,0L1422.9,0C1405.7,0,1371,0,1337,0C1302.9,0,1269,0,1234,0C1200,0,1166,0,1131,0C1097.1,0,1063,0,1029,0C994.3,0,960,0,926,0C891.4,0,857,0,823,0C788.6,0,754,0,720,0C685.7,0,651,0,617,0C582.9,0,549,0,514,0C480,0,446,0,411,0C377.1,0,343,0,309,0C274.3,0,240,0,206,0C171.4,0,137,0,103,0C68.6,0,34,0,17,0L0,0Z"></path></svg>