<?xml version="1.0" standalone="no"?><svg xmlns="http://www.w3.org/2000/svg" viewBox="0 0 1440 320"><path fill="#037e3f" fill-opacity="1" d="M0,288L24,256C48,224,96,160,144,144C192,128,240,160,288,160C336,160,384,128,432,128C480,128,528,160,576,181.3C624,203,672,213,720,181.3C768,149,816,75,864,69.3C912,64,960,128,1008,138.7C1056,149,1104,107,1152,106.7C1200,107,1248,149,1296,176C1344,203,1392,213,1416,218.7L1440,224L1440,0L1416,0C1392,0,1344,0,1296,0C1248,0,1200,0,1152,0C1104,0,1056,0,1008,0C960,0,912,0,864,0C816,0,768,0,720,0C672,0,624,0,576,0C528,0,480,0,432,0C384,0,336,0,288,0C240,0,192,0,144,0C96,0,48,0,24,0L0,0Z"></path></svg>