<?xml version="1.0" standalone="no"?><svg xmlns="http://www.w3.org/2000/svg" viewBox="0 0 1440 320"><path fill="#037e3f" fill-opacity="1" d="M0,256L18.5,256C36.9,256,74,256,111,229.3C147.7,203,185,149,222,160C258.5,171,295,245,332,245.3C369.2,245,406,171,443,128C480,85,517,75,554,101.3C590.8,128,628,192,665,192C701.5,192,738,128,775,106.7C812.3,85,849,107,886,133.3C923.1,160,960,192,997,208C1033.8,224,1071,224,1108,208C1144.6,192,1182,160,1218,176C1255.4,192,1292,256,1329,250.7C1366.2,245,1403,171,1422,133.3L1440,96L1440,0L1421.5,0C1403.1,0,1366,0,1329,0C1292.3,0,1255,0,1218,0C1181.5,0,1145,0,1108,0C1070.8,0,1034,0,997,0C960,0,923,0,886,0C849.2,0,812,0,775,0C738.5,0,702,0,665,0C627.7,0,591,0,554,0C516.9,0,480,0,443,0C406.2,0,369,0,332,0C295.4,0,258,0,222,0C184.6,0,148,0,111,0C73.8,0,37,0,18,0L0,0Z"></path></svg>